#!OML:ASF I:\Actors\actors\Patient Classification 1\Patient 1\Session 1\Subject1.ASF
:FULLY-SPECIFIED
:DEGREES
2003
root 0.8635 17.525 9.20096 39.7085 14.9178 -8.63386
lowerback 16.78 0.325101 5.05877
upperback -10.0449 1.70983 -0.669889
thorax -20.8937 -0.0530929 -4.25066
lowerneck -17.6528 -9.43453 -5.7724
upperneck 7.14145 -14.0844 20.0562
head 7.09438 -5.5429 5.72001
rclavicle 4.37326e-015 -1.74931e-014
rhumerus -10.0466 -77.9411 -1.48973
rradius 24.022
rwrist 54.4291
rhand 17.4119 -20.9715
rfingers 7.12502
rthumb 42.1169 -405.522
lclavicle 4.37326e-015 -1.74931e-014
lhumerus 0.511697 59.1393 8.33803
lradius 36.7097
lwrist -11.2176
lhand -10.2701 -13.155
lfingers 7.12502
lthumb 15.7235 16.2263
rfemur -30.7165 13.9005 16.8368
rtibia -4.32071
rfoot -11.4217 -28.5615
rtoes 14.3431
lfemur -47.2043 -53.6018 39.8628
ltibia -10.9597
lfoot -70.9528 42.0928
ltoes 55.9233
2004
root 0.873917 17.527 9.19211 39.7089 14.4974 -8.46011
lowerback 16.8763 0.251042 5.10341
upperback -9.95461 1.63204 -0.60225
thorax -20.8466 -0.0832017 -4.17089
lowerneck -17.7 -9.33163 -5.68264
upperneck 7.0369 -13.9179 19.8995
head 7.02482 -5.47699 5.67751
rclavicle -1.15295e-014 -8.74653e-015
rhumerus -10.0076 -78.161 -1.69019
rradius 24.1173
rwrist 54.7552
rhand 17.4732 -20.7385
rfingers 7.12502
rthumb 42.1743 -405.27
lclavicle -1.15295e-014 -8.74653e-015
lhumerus 0.909333 59.1129 8.69313
lradius 36.645
lwrist -11.1893
lhand -10.1685 -13.3299
lfingers 7.12502
lthumb 15.8213 16.0436
rfemur -30.7435 14.0136 16.4523
rtibia -4.34203
rfoot -11.4785 -28.6839
rtoes 14.7576
lfemur -46.9427 -53.5887 39.2179
ltibia -10.9218
lfoot -70.8655 42.1056
ltoes 55.9127
2005
root 0.882249 17.528 9.18408 39.7471 14.0901 -8.39521
lowerback 16.9462 0.206596 5.21048
upperback -9.91653 1.61779 -0.512789
thorax -20.8428 -0.0951758 -4.12444
lowerneck -17.5748 -9.18826 -5.5209
upperneck 6.78555 -13.6767 19.6779
head 6.85847 -5.3973 5.61739
rclavicle 1.90833e-014 -6.2816e-014
rhumerus -10.2044 -78.2035 -1.6261
rradius 24.1629
rwrist 54.791
rhand 17.5735 -20.5603
rfingers 7.12502
rthumb 42.2683 -405.06
lclavicle 1.90833e-014 -6.2816e-014
lhumerus 1.42802 59.1031 9.21219
lradius 36.5961
lwrist -11.2324
lhand -10.2248 -13.3081
lfingers 7.12502
lthumb 15.7672 16.0697
rfemur -30.8637 14.2114 16.1794
rtibia -4.3223
rfoot -11.5028 -28.8058
rtoes 14.7143
lfemur -46.6113 -53.4611 38.6636
ltibia -10.9765
lfoot -70.85 42.0657
ltoes 55.9529
2006
root 0.889402 17.5272 9.17545 39.8917 13.6246 -8.31939
lowerback 16.9342 0.185071 5.25791
upperback -9.93532 1.6163 -0.427085
thorax -20.8612 -0.0951717 -4.05252
lowerneck -18.4693 -9.40631 -5.25672
upperneck 7.70429 -14.0913 18.9949
head 7.27288 -5.52862 5.26401
rclavicle 2.38542e-014 -1.35174e-014
rhumerus -10.3241 -77.9898 -1.62793
rradius 24.2452
rwrist 54.5685
rhand 17.6737 -20.4298
rfingers 7.12502
rthumb 42.3621 -404.897
lclavicle 2.38542e-014 -1.35174e-014
lhumerus 1.78047 58.9488 9.61644
lradius 36.6109
lwrist -11.1878
lhand -10.2293 -13.3402
lfingers 7.12502
lthumb 15.7628 16.038
rfemur -31.1524 14.4269 15.8181
rtibia -4.24782
rfoot -11.5591 -28.9259
rtoes 14.9337
lfemur -46.3067 -53.2077 38.1044
ltibia -11.0678
lfoot -70.8482 41.9914
ltoes 56.0128
2007
root 0.896703 17.5271 9.16706 40.0005 13.1072 -8.1773
lowerback 16.9612 0.138008 5.24265
upperback -9.93608 1.55929 -0.364073
thorax -20.8882 -0.112656 -3.95247
lowerneck -18.1698 -9.12342 -5.1172
upperneck 7.35989 -13.6516 18.8604
head 7.03317 -5.36443 5.27276
rclavicle 1.51076e-014 -2.70347e-014
rhumerus -10.2383 -77.6609 -1.90327
rradius 24.3116
rwrist 54.3167
rhand 17.7353 -20.2278
rfingers 7.12502
rthumb 42.4198 -404.676
lclavicle 1.51076e-014 -2.70347e-014
lhumerus 1.87173 58.6452 9.68985
lradius 36.6334
lwrist -11.0166
lhand -10.1621 -13.3024
lfingers 7.12502
lthumb 15.8276 16.0706
rfemur -31.3677 14.6267 15.3658
rtibia -4.2327
rfoot -11.5887 -29.0155
rtoes 15.2115
lfemur -45.9137 -53.0443 37.3736
ltibia -11.1586
lfoot -70.7517 42.0211
ltoes 55.9952
2008
root 0.908663 17.5228 9.15046 39.8067 12.9783 -8.53189
lowerback 17.2125 0.013406 5.98074
upperback -9.88656 1.64136 -0.151085
thorax -20.9638 -0.164551 -4.15952
lowerneck -18.1928 -8.99969 -5.0932
upperneck 7.32664 -13.4617 18.7415
head 6.98977 -5.2834 5.25805
rclavicle 3.65764e-014 -4.69132e-014
rhumerus -10.3864 -77.1788 -1.91876
rradius 24.2551
rwrist 53.941
rhand 17.7237 -20.2585
rfingers 7.12502
rthumb 42.409 -404.71
lclavicle 3.65764e-014 -4.69132e-014
lhumerus 2.1858 58.603 10.0007
lradius 36.6016
lwrist -11.1087
lhand -10.1356 -13.2333
lfingers 7.12502
lthumb 15.8531 16.1377
rfemur -31.2688 14.9225 15.6711
rtibia -4.33543
rfoot -11.5077 -29.1154
rtoes 15.0789
lfemur -45.3025 -52.9503 37.2156
ltibia -11.3619
lfoot -70.6642 42.079
ltoes 55.9783
